<?xml version="1.0" encoding="UTF-8" standalone="no"?>
<!-- Created with Inkscape (http://www.inkscape.org/) -->

<svg
   version="1.1"
   id="svg2"
   xml:space="preserve"
   width="716.95331"
   height="246.23987"
   viewBox="0 0 716.95331 246.23987"
   xmlns="http://www.w3.org/2000/svg"
   xmlns:svg="http://www.w3.org/2000/svg"><defs
     id="defs6"><clipPath
       clipPathUnits="userSpaceOnUse"
       id="clipPath18"><path
         d="M 0,0 H 1920 V 1080 H 0 Z"
         id="path16" /></clipPath><clipPath
       clipPathUnits="userSpaceOnUse"
       id="clipPath30"><path
         d="m 740.65,429.7501 h 51.5 v 139.25 h 46.25 v 39.5 h -144 v -39.5 h 46.25 z m 105.6,0 h 116 v 31.6 h -57 l 60,107 v 4.4 h -111.2 v -31.4 h 53 l -60.8,-107 z m 136.6,0 h 102 v 31.6 h -61.2 v 26 h 46.2 v 29.2 h -46.2 v 24.6 h 58 v 31.6 h -98.8 z m 122.4,0 h 40.8 v 51.2 h 9.6 l 29,-51.2 h 43.2 l -34.2,59.2 c 15,5.8 25.8,17.2 25.8,37.6 v 0.8 c 0,30.2 -20.8,45.4 -58.2,45.4 h -56 z m 40.8,77.8 v 34.4 h 13.4 c 13.2,0 20.4,-4.6 20.4,-16.2 v -0.8 c 0,-11.6 -6.8,-17.4 -20.6,-17.4 z"
         id="path28" /></clipPath><clipPath
       clipPathUnits="userSpaceOnUse"
       id="clipPath36"><path
         d="m 740.65,429.7501 h 51.5 v 139.25 h 46.25 v 39.5 h -144 v -39.5 h 46.25 z m 105.6,0 h 116 v 31.6 h -57 l 60,107 v 4.4 h -111.2 v -31.4 h 53 l -60.8,-107 z m 136.6,0 h 102 v 31.6 h -61.2 v 26 h 46.2 v 29.2 h -46.2 v 24.6 h 58 v 31.6 h -98.8 z m 122.4,0 h 40.8 v 51.2 h 9.6 l 29,-51.2 h 43.2 l -34.2,59.2 c 15,5.8 25.8,17.2 25.8,37.6 v 0.8 c 0,30.2 -20.8,45.4 -58.2,45.4 h -56 z m 40.8,77.8 v 34.4 h 13.4 c 13.2,0 20.4,-4.6 20.4,-16.2 v -0.8 c 0,-11.6 -6.8,-17.4 -20.6,-17.4 z"
         id="path34" /></clipPath><linearGradient
       x1="0"
       y1="0"
       x2="100"
       y2="0"
       gradientUnits="userSpaceOnUse"
       gradientTransform="matrix(0,-1.8275,-5.3745,0,961.125,610.5001)"
       spreadMethod="pad"
       id="linearGradient50"><stop
         style="stop-opacity:1;stop-color:#991a5e"
         offset="0"
         id="stop46" /><stop
         style="stop-opacity:1;stop-color:#003462"
         offset="1"
         id="stop48" /></linearGradient></defs><g
     id="g8"
     transform="matrix(1.3333333,0,0,-1.3333333,-922.06667,814.64893)"><g
       id="g10" /><g
       id="g12"><g
         id="g14"
         clip-path="url(#clipPath18)"><g
           id="g20"
           transform="translate(689.15,429.7501)" /><g
           id="g22"
           transform="translate(689.15,429.7501)" /></g></g><g
       id="g24"><g
         id="g26"
         clip-path="url(#clipPath30)"><g
           id="g32"
           clip-path="url(#clipPath36)"><g
             id="g38"><g
               id="g44"><path
                 d="M 0,0 H 1920 V 1080 H 0 Z"
                 style="fill:url(#linearGradient50);stroke:none"
                 id="path52" /></g></g></g></g></g></g></svg>
